<?xml version="1.0" encoding="utf-8"?>
<!-- Generator: Adobe Illustrator 21.1.0, SVG Export Plug-In . SVG Version: 6.00 Build 0)  -->
<svg version="1.1" id="Calque_1" xmlns="http://www.w3.org/2000/svg" xmlns:xlink="http://www.w3.org/1999/xlink" x="0px" y="0px"
	 width="200px" height="70px" viewBox="0 0 200 70" style="enable-background:new 0 0 200 70;" xml:space="preserve">
<style type="text/css">
	.st0{fill:#3F3A7D;}
</style>
<g>
	<path class="st0" d="M28.8,27.4c0,3.5-1.2,6.5-3.5,8.8c-2.5,2.5-5.7,3.7-9.7,3.7H7.8v15.1H0V14.9h15.6c4,0,7.3,1.2,9.7,3.7
		C27.6,21,28.8,23.9,28.8,27.4z M21,27.4c0-1.7-0.5-3-1.6-4c-1.1-1-2.5-1.5-4.2-1.5H7.8v11h7.3c1.8,0,3.2-0.5,4.2-1.5
		C20.4,30.4,21,29.1,21,27.4z"/>
	<path class="st0" d="M61.8,55.1H35.4V14.9h26.4v7H43.2v9.4h15.8v7H43.2v9.7h18.6V55.1z"/>
	<path class="st0" d="M97.8,35c0,4.4-0.2,7.4-0.5,9.1c-0.5,2.8-1.7,5.1-3.5,6.9c-2.9,2.9-6.5,4.4-10.8,4.4c-4.3,0-7.9-1.5-10.9-4.4
		c-1.8-1.8-3-4.1-3.5-6.9c-0.3-1.7-0.5-4.7-0.5-9.1s0.1-7.4,0.5-9.1c0.5-2.8,1.7-5.1,3.5-6.9c2.9-2.9,6.6-4.4,10.9-4.4
		c4.3,0,7.9,1.5,10.8,4.4c1.8,1.8,3,4.2,3.5,6.9C97.6,27.6,97.8,30.6,97.8,35z M89.9,35c0-3.1,0-5-0.1-5.9c-0.2-2.5-0.8-4.3-1.9-5.4
		c-1.3-1.4-3-2.1-5-2.1c-2.1,0-3.8,0.7-5.1,2.1c-1,1.1-1.6,2.9-1.8,5.4C76,29.8,76,31.8,76,35s0,5.2,0.1,5.9
		c0.2,2.5,0.8,4.3,1.8,5.4c1.3,1.4,3,2.1,5.1,2.1c2.3,0,4.2-0.9,5.5-2.7C89.4,44.3,89.9,40.7,89.9,35z"/>
	<path class="st0" d="M134.6,27.4c0,3.5-1.2,6.5-3.5,8.8c-2.5,2.5-5.7,3.7-9.7,3.7h-7.7v15.1h-7.8V14.9h15.6c4,0,7.3,1.2,9.7,3.7
		C133.4,21,134.6,23.9,134.6,27.4z M126.7,27.4c0-1.7-0.5-3-1.6-4c-1.1-1-2.5-1.5-4.2-1.5h-7.3v11h7.3c1.8,0,3.2-0.5,4.2-1.5
		C126.2,30.4,126.7,29.1,126.7,27.4z"/>
	<path class="st0" d="M167.2,55.1h-26V14.9h7.8v33.1h18.2V55.1z"/>
	<path class="st0" d="M200,55.1h-26.4V14.9H200v7h-18.6v9.4h15.8v7h-15.8v9.7H200V55.1z"/>
</g>
</svg>
